<svg width="53" height="53" viewBox="0 0 53 53" fill="none" xmlns="http://www.w3.org/2000/svg">
<path fill-rule="evenodd" clip-rule="evenodd" d="M20.6558 0C16.5362 0 13.1967 3.23349 13.1967 7.22222V12.2222H26.1066V13.6111H7.45901C3.33951 13.6111 0 16.8446 0 20.8333V31.6667C0 35.6554 3.33951 38.8888 7.45901 38.8888H11.7623V32.7778C11.7623 28.7891 15.1018 25.5555 19.2214 25.5555H32.9918C36.4776 25.5555 39.3032 22.8195 39.3032 19.4445V7.22222C39.3032 3.23349 35.9638 0 31.8443 0H20.6558ZM18.9345 8.88889C20.3604 8.88889 21.5164 7.76959 21.5164 6.38889C21.5164 5.00818 20.3604 3.88888 18.9345 3.88888C17.5084 3.88888 16.3524 5.00818 16.3524 6.38889C16.3524 7.76959 17.5084 8.88889 18.9345 8.88889Z" fill="url(#paint0_linear_19_6)"/>
<path fill-rule="evenodd" clip-rule="evenodd" d="M31.8439 52.4999C35.9634 52.4999 39.303 49.2665 39.303 45.2778V40.2777H26.3931V38.8889H45.0407C49.1602 38.8889 52.4996 35.6553 52.4996 31.6666V20.8332C52.4996 16.8446 49.1602 13.6111 45.0407 13.6111H40.7374V19.7221C40.7374 23.711 37.3978 26.9444 33.2784 26.9444H19.5079C16.0221 26.9444 13.1964 29.6804 13.1964 33.0554V45.2778C13.1964 49.2665 16.536 52.4999 20.6554 52.4999H31.8439ZM33.5653 43.6111C32.1392 43.6111 30.9832 44.7303 30.9832 46.1111C30.9832 47.4918 32.1392 48.611 33.5653 48.611C34.9912 48.611 36.1472 47.4918 36.1472 46.1111C36.1472 44.7303 34.9912 43.6111 33.5653 43.6111Z" fill="url(#paint1_linear_19_6)"/>
<defs>
<linearGradient id="paint0_linear_19_6" x1="19.6517" y1="0" x2="19.6517" y2="38.8888" gradientUnits="userSpaceOnUse">
<stop stop-color="#327EBD"/>
<stop offset="1" stop-color="#1565A7"/>
</linearGradient>
<linearGradient id="paint1_linear_19_6" x1="32.8481" y1="13.6111" x2="32.8481" y2="52.4999" gradientUnits="userSpaceOnUse">
<stop stop-color="#FFDA4B"/>
<stop offset="1" stop-color="#F9C600"/>
</linearGradient>
</defs>
</svg>
